<?xml version="1.0" encoding="UTF-8" standalone="no"?>
<!-- Created with Inkscape (http://www.inkscape.org/) -->

<svg
   width="246.48477mm"
   height="82.918411mm"
   viewBox="0 0 246.48477 82.918411"
   version="1.1"
   id="svg1"
   xmlns="http://www.w3.org/2000/svg"
   xmlns:svg="http://www.w3.org/2000/svg">
  <defs
     id="defs1" />
  <g
     id="layer1"
     transform="translate(-139.88506,7.4912502)">
    <g
       id="g1">
      <path
         style="fill:#d63384;fill-rule:evenodd;stroke:#000000;stroke-width:0.302968;stroke-linecap:butt;stroke-linejoin:round;stroke-dasharray:0, 3.33265;stroke-dashoffset:0;paint-order:normal"
         d="M 344.02116,28.382644 360.74417,0.03915411 c -8.01761,-4.69299001 -17.13214,-7.18598001 -26.42216,-7.22695001 -9.14195,0.005 -18.12568,2.3858 -26.07076,6.90810001 L 324.77066,28.290144 c 2.91709,-1.6444 6.20286,-2.52384 9.55135,-2.55644 3.40684,0.0357 6.74711,0.94796 9.69915,2.64894 z"
         id="path19" />
      <path
         style="fill:#5d61df;fill-opacity:1;fill-rule:evenodd;stroke:#000000;stroke-width:0.302968;stroke-linecap:butt;stroke-linejoin:round;stroke-dasharray:0, 3.33265;stroke-dashoffset:0;paint-order:normal"
         d="m 353.46121,45.040875 32.90769,0.3108 c 0.0555,-9.28995 -2.34283,-18.42986 -6.95236,-26.495734 -4.5753,-7.914661 -11.129,-14.5043997 -19.01797,-19.12389071 L 343.91607,28.323205 c 2.88264,1.70407 5.28714,4.10991 6.98962,6.99349 1.6725,2.96826 2.55259,6.31715 2.55552,9.72418 z"
         id="path19-8" />
      <path
         style="fill:#fd7e14;fill-rule:evenodd;stroke:#000000;stroke-width:0.302968;stroke-linecap:butt;stroke-linejoin:round;stroke-dasharray:0, 3.33265;stroke-dashoffset:0;paint-order:normal"
         d="M 325.01518,28.243653 308.52,-0.28550731 c -6.01882,3.28093201 -13.30477,3.22308501 -19.27073,-0.153015 L 272.46672,28.006021 c 16.22816,9.416098 36.23581,9.506572 52.54846,0.237632 z"
         id="path18" />
      <path
         style="fill:#7e36f4;fill-rule:evenodd;stroke:#000000;stroke-width:0.302968;stroke-linecap:butt;stroke-linejoin:round;stroke-dasharray:0, 3.33265;stroke-dashoffset:0;paint-order:normal"
         d="m 201.35147,27.834236 c 0.0316,0.02146 0.0631,0.04292 0.0948,0.06429 16.22018,9.312529 36.15817,9.342537 52.4063,0.07888 L 237.36668,-0.53455189 c -5.99392,3.33145899 -13.28312,3.33208299 -19.27762,0.0016 z"
         id="path17" />
      <path
         style="fill:#4ab563;fill-rule:evenodd;stroke:#000000;stroke-width:0.302968;stroke-linecap:butt;stroke-linejoin:round;stroke-dasharray:0, 3.33265;stroke-dashoffset:0;paint-order:normal"
         d="M 237.19296,-0.45427825 253.67061,28.043969 c 6.02634,-3.328585 13.34732,-3.295817 19.34362,0.08658 l 16.73275,-28.35979525 -0.0978,-0.05996 c -16.21745,-9.35853405 -36.18001,-9.42111405 -52.45617,-0.165073 z"
         id="path16" />
      <path
         style="fill:#ffc107;fill-rule:evenodd;stroke:#000000;stroke-width:0.302968;stroke-linecap:butt;stroke-linejoin:round;stroke-dasharray:0, 3.33265;stroke-dashoffset:0;paint-order:normal"
         d="M 166.40178,-0.78698593 C 150.14751,8.5329411 140.05477,25.773589 139.88505,44.509474 l 32.93856,-0.02067 c 0.16804,-6.852914 3.86112,-13.133798 9.76788,-16.612423 z"
         id="path15" />
      <path
         style="fill:#17a2b8;fill-rule:evenodd;stroke:#000000;stroke-width:0.302968;stroke-linecap:butt;stroke-linejoin:round;stroke-dasharray:0, 3.33265;stroke-dashoffset:0;paint-order:normal"
         d="m 191.98801,-7.4912499 c -9.13169,0.04444 -18.09554,2.458028 -26.01495,7.00474001 L 182.43613,27.987205 c 2.9172,-1.644658 6.20317,-2.524283 9.55188,-2.55695 3.41512,0.0055 6.77103,0.892249 9.74307,2.57452 l 16.7318,-28.35795889 C 210.42116,-5.0240459 201.2878,-7.4865509 191.98801,-7.4912499 Z"
         id="path14" />
      <circle
         style="fill:#ff0000;fill-rule:evenodd;stroke:#000000;stroke-width:0.423862;stroke-linecap:butt;stroke-linejoin:round;stroke-dasharray:0, 4.66248;stroke-dashoffset:0;stroke-opacity:1;paint-order:normal"
         id="path20"
         cx="155.53091"
         cy="62.185482"
         r="12.78" />
      <circle
         style="fill:#ff0000;fill-rule:evenodd;stroke:#000000;stroke-width:0.423862;stroke-linecap:butt;stroke-linejoin:round;stroke-dasharray:0, 4.66248;stroke-dashoffset:0;stroke-opacity:1;paint-order:normal"
         id="path20-5"
         cx="371.89383"
         cy="62.64716"
         r="12.78" />
    </g>
  </g>
</svg>
